<?xml version="1.0" encoding="utf-8"?>
<!-- Generator: Adobe Illustrator 17.0.2, SVG Export Plug-In . SVG Version: 6.00 Build 0)  -->
<!DOCTYPE svg PUBLIC "-//W3C//DTD SVG 1.1//EN" "http://www.w3.org/Graphics/SVG/1.1/DTD/svg11.dtd">
<svg version="1.1" id="Layer_1" xmlns="http://www.w3.org/2000/svg" xmlns:xlink="http://www.w3.org/1999/xlink" x="0px" y="0px"
	 width="22.042px" height="21.958px" viewBox="0 0 22.042 21.958" enable-background="new 0 0 22.042 21.958" xml:space="preserve">
<g>
	<polygon fill="#FFFFFF" points="13.222,0.979 8.82,0.979 8.82,8.778 1.021,8.778 1.021,13.18 8.82,13.18 8.82,20.979 
		13.222,20.979 13.222,13.18 21.021,13.18 21.021,8.778 13.222,8.778 	"/>
	<path fill="#212121" d="M14.222,7.778v-7.799H7.82v7.799H0.021v6.402H7.82v7.799h6.402V14.18h7.799V7.778H14.222z M21.521,13.68
		h-7.799v7.799H8.32V13.68H0.521V8.278H8.32V0.479h5.402v7.799h7.799V13.68z"/>
	<path fill="#212121" d="M13.722,0.479H8.32v7.799H0.521v5.402H8.32v7.799h5.402V13.68h7.799V8.278h-7.799V0.479z M21.021,8.778
		v4.402h-7.799v7.799H8.82V13.18H1.021V8.778H8.82V0.979h4.402v7.799H21.021z"/>
</g>
</svg>
