<?xml version="1.0" encoding="utf-8"?>
<!-- Generator: Adobe Illustrator 17.0.2, SVG Export Plug-In . SVG Version: 6.00 Build 0)  -->
<!DOCTYPE svg PUBLIC "-//W3C//DTD SVG 1.1//EN" "http://www.w3.org/Graphics/SVG/1.1/DTD/svg11.dtd">
<svg version="1.1" id="Layer_1" xmlns="http://www.w3.org/2000/svg" xmlns:xlink="http://www.w3.org/1999/xlink" x="0px" y="0px"
	 width="22.042px" height="21.958px" viewBox="7.958 8 22.042 21.958" enable-background="new 7.958 8 22.042 21.958"
	 xml:space="preserve">
<g>
	<polygon fill="#FFFFFF" points="16.575,29.224 16.575,21.487 8.776,21.487 8.776,16.513 16.575,16.513 16.575,8.776 21.425,8.776 
		21.425,16.513 29.224,16.513 29.224,21.487 21.425,21.487 21.425,29.224 	"/>
	<path fill="#303030" d="M21.149,9.053v7.184v0.553h0.553h7.246v4.421h-7.246h-0.553v0.553v7.184h-4.297v-7.184v-0.553h-0.553H9.053
		v-4.421h7.246h0.553v-0.553V9.053H21.149 M21.701,8.5h-5.402v7.737H8.5v5.526h7.799V29.5h5.402v-7.737H29.5v-5.526h-7.799V8.5
		L21.701,8.5z"/>
</g>
<polygon fill="#FFFFFF" stroke="#212121" stroke-miterlimit="10" points="29.5,16.299 21.701,16.299 21.701,8.5 16.299,8.5 
	16.299,16.299 8.5,16.299 8.5,21.701 16.299,21.701 16.299,29.5 21.701,29.5 21.701,21.701 29.5,21.701 "/>
</svg>
