<?xml version="1.0" encoding="utf-8"?>
<!-- Generator: Adobe Illustrator 17.0.2, SVG Export Plug-In . SVG Version: 6.00 Build 0)  -->
<!DOCTYPE svg PUBLIC "-//W3C//DTD SVG 1.1//EN" "http://www.w3.org/Graphics/SVG/1.1/DTD/svg11.dtd">
<svg version="1.1" id="Layer_1" xmlns="http://www.w3.org/2000/svg" xmlns:xlink="http://www.w3.org/1999/xlink" x="0px" y="0px"
	 width="22.308px" height="20px" viewBox="500.346 374.5 22.308 20" enable-background="new 500.346 374.5 22.308 20"
	 xml:space="preserve">
<g>
	<g>
		<g>
			<path fill="#FFFFFF" d="M510.865,391.757c-0.199-0.121-0.385-0.243-0.57-0.364c-0.153-0.099-0.306-0.198-0.465-0.298
				c-0.858-0.532-1.808-1.111-2.759-1.689c-0.949-0.577-1.897-1.154-2.753-1.687c-0.48-0.241-1.136-0.353-1.396-0.389
				c-0.299-0.022-0.587-0.029-0.877-0.029c-0.289,0-0.579,0.007-0.868,0.014c-0.195,0.004-0.389,0.009-0.58,0.011v-6.42
				c0.191,0.002,0.385,0.007,0.58,0.011c0.289,0.007,0.579,0.014,0.868,0.014c0.291,0,0.579-0.007,0.86-0.027
				c0.001,0,0.002,0,0.004,0c0.525,0,1.034-0.141,1.417-0.396l1.38-0.804c1.402-0.815,2.852-1.659,4.125-2.448l0.281-0.171
				c0.247-0.148,0.5-0.3,0.754-0.495V391.757z"/>
			<path fill="#303030" d="M510.615,377.068v7.208v0.059v6.968c-0.061-0.04-0.123-0.08-0.185-0.12c-0.154-0.1-0.307-0.2-0.469-0.301
				c-0.858-0.533-1.809-1.111-2.76-1.69c-0.948-0.577-1.896-1.154-2.792-1.707c-0.492-0.246-1.18-0.363-1.488-0.406
				c-0.287-0.021-0.582-0.028-0.878-0.028c-0.29,0-0.583,0.007-0.874,0.013c-0.108,0.003-0.217,0.005-0.324,0.007V384.5v-0.059
				v-3.281c0.108,0.002,0.216,0.005,0.324,0.007c0.29,0.007,0.583,0.013,0.874,0.013c0.296,0,0.591-0.007,0.842-0.026
				c0.593,0,1.153-0.156,1.553-0.423c0.442-0.259,0.908-0.53,1.386-0.808c1.405-0.817,2.859-1.662,4.137-2.456
				c0.092-0.057,0.184-0.113,0.276-0.168C510.363,377.224,510.488,377.149,510.615,377.068 M511.115,376.038
				c-0.473,0.473-0.945,0.709-1.418,1.004c-1.713,1.063-3.798,2.252-5.511,3.257c-0.354,0.236-0.827,0.354-1.3,0.354
				c-0.276,0.02-0.558,0.026-0.842,0.026c-0.569,0-1.147-0.026-1.698-0.026c0,1.122,0,2.665,0,3.787v0.059c0,1.122,0,1.954,0,3.077
				c0.551,0,1.129-0.026,1.698-0.026c0.284,0,0.567,0.007,0.842,0.026c0.414,0.059,0.945,0.177,1.3,0.354
				c1.713,1.063,3.798,2.311,5.511,3.375c0.473,0.295,0.886,0.591,1.418,0.886c0-2.658,0-5.258,0-7.857v-0.059
				C511.115,381.677,511.115,378.697,511.115,376.038L511.115,376.038z"/>
		</g>
	</g>
	<g>
		<g>
			<path fill="#FFFFFF" d="M517.591,392.93c1.397-2.134,3.005-5.273,3.005-8.43c0-3.156-1.607-6.296-3.005-8.429l1.188-1.189
				c2.438,3.321,3.625,6.47,3.625,9.618c0,3.148-1.187,6.297-3.625,9.618L517.591,392.93z"/>
			<path fill="#303030" d="M518.749,375.265c2.29,3.189,3.405,6.215,3.405,9.235s-1.115,6.045-3.405,9.235l-0.839-0.839
				c1.39-2.157,2.936-5.262,2.936-8.396s-1.546-6.238-2.936-8.396L518.749,375.265 M518.808,374.5l-1.538,1.538
				c1.538,2.308,3.077,5.449,3.077,8.462s-1.538,6.154-3.077,8.462l1.538,1.538c2.308-3.077,3.846-6.396,3.846-10
				C522.654,380.896,521.115,377.577,518.808,374.5L518.808,374.5z"/>
		</g>
	</g>
	<g>
		<g>
			<path fill="#FFFFFF" d="M513.769,389.107c0.724-0.857,1.443-2.578,1.443-4.603c0-1.528-0.681-3.654-1.443-4.604l1.215-1.188
				c0.768,1.01,2.036,3.855,2.036,5.792c0,2.452-1.263,4.841-2.065,5.792L513.769,389.107z"/>
			<path fill="#303030" d="M514.946,379.099c0.714,1.097,1.823,3.63,1.823,5.406c0,2.225-1.063,4.389-1.836,5.417l-0.83-0.832
				c0.718-0.952,1.358-2.615,1.358-4.585c0-1.51-0.616-3.514-1.362-4.578L514.946,379.099 M515.001,378.346l-1.578,1.544
				c0.769,0.764,1.538,3.02,1.538,4.615c0,2.068-0.769,3.841-1.538,4.61l1.538,1.544c0.769-0.774,2.308-3.377,2.308-6.154
				C517.269,382.319,515.731,379.115,515.001,378.346L515.001,378.346z"/>
		</g>
	</g>
</g>
</svg>
