<?xml version="1.0" encoding="utf-8"?>
<!-- Generator: Adobe Illustrator 17.0.2, SVG Export Plug-In . SVG Version: 6.00 Build 0)  -->
<!DOCTYPE svg PUBLIC "-//W3C//DTD SVG 1.1//EN" "http://www.w3.org/Graphics/SVG/1.1/DTD/svg11.dtd">
<svg version="1.1" id="Layer_1" xmlns="http://www.w3.org/2000/svg" xmlns:xlink="http://www.w3.org/1999/xlink" x="0px" y="0px"
	 width="72px" height="55px" viewBox="0 0 72 55" enable-background="new 0 0 72 55" xml:space="preserve">
<g opacity="0.7">
	<path fill="#555555" d="M12.485,55c-1.1,0-2.523-0.732-3.162-1.627l-8.16-11.425C0.523,41.053,0,39.42,0,38.32V5c0-1.1,0.9-2,2-2
		h7.875c1.1,0,2.026,0.195,2.058,0.434s0.235,1.316,0.452,2.395l7.761,25.363C20.616,32.186,21.9,33,23,33h26
		c1.1,0,2.384-0.814,2.854-1.809l7.761-25.363c0.216-1.079,0.419-2.156,0.451-2.395S61.024,3,62.124,3H70c1.1,0,2,0.9,2,2v33.32
		c0,1.1-0.523,2.732-1.162,3.627l-8.16,11.425C62.038,54.268,60.615,55,59.515,55H12.485z"/>
</g>
<g>
	<path fill="#999999" d="M12.485,53c-1.1,0-2.523-0.732-3.162-1.627l-8.16-11.425C0.523,39.053,0,37.42,0,36.32V3c0-1.1,0.9-2,2-2
		h7.875c1.1,0,2.026,0.195,2.058,0.434s0.235,1.316,0.452,2.395l7.761,25.363C20.616,30.186,21.9,31,23,31h26
		c1.1,0,2.384-0.814,2.854-1.809l7.761-25.363c0.216-1.079,0.419-2.156,0.451-2.395S61.024,1,62.124,1H70c1.1,0,2,0.9,2,2v33.32
		c0,1.1-0.523,2.732-1.162,3.627l-8.16,11.425C62.038,52.268,60.615,53,59.515,53H12.485z"/>
</g>
<g>
	<path fill="#D8D8D8" d="M1,2c0-1.1,0.9-2,2-2h6c1.1,0,2.119,0.892,2.264,1.982C11.264,1.982,15,30,21,30s24,0,30,0
		s9.736-28.018,9.736-28.018C60.881,0.892,61.9,0,63,0h6c1.1,0,2,0.9,2,2v32c0,1.1-0.523,2.732-1.162,3.627l-7.675,10.745
		C61.523,49.268,60.1,50,59,50H13c-1.1,0-2.523-0.732-3.162-1.627L2.162,37.627C1.523,36.732,1,35.1,1,34V2z"/>
</g>
</svg>
