<?xml version="1.0" encoding="utf-8"?>
<!-- Generator: Adobe Illustrator 17.0.2, SVG Export Plug-In . SVG Version: 6.00 Build 0)  -->
<!DOCTYPE svg PUBLIC "-//W3C//DTD SVG 1.1//EN" "http://www.w3.org/Graphics/SVG/1.1/DTD/svg11.dtd">
<svg version="1.1" id="Layer_1" xmlns="http://www.w3.org/2000/svg" xmlns:xlink="http://www.w3.org/1999/xlink" x="0px" y="0px"
	 width="72px" height="55px" viewBox="0 0 72 55" enable-background="new 0 0 72 55" xml:space="preserve">
<g>
	<path opacity="0.502" fill="#555555" d="M62.678,51.372C62.038,52.268,60.615,53,59.515,53h-47.03c-1.1,0-2.523-0.732-3.162-1.627
		l-8.16-11.425C0.523,39.053,0,37.42,0,36.32v2c0,1.1,0.523,2.733,1.163,3.628l8.16,11.425C9.962,54.268,11.385,55,12.485,55h47.03
		c1.1,0,2.523-0.732,3.163-1.628l8.16-11.425C71.477,41.052,72,39.42,72,38.32v-2c0,1.1-0.523,2.732-1.162,3.627L62.678,51.372z"/>
	<path opacity="0.9882" fill="#999999" d="M59.615,5.828c0.216-1.079,0.419-2.156,0.451-2.395c0.014-0.105,0.202-0.202,0.502-0.277
		c0.111-0.747,0.168-1.174,0.168-1.174c0.044-0.332,0.169-0.645,0.353-0.92c-0.592,0.076-1.002,0.214-1.023,0.371
		c-0.032,0.239-0.235,1.316-0.451,2.395l-7.761,25.363c-0.133,0.282-0.332,0.55-0.574,0.789c0.372-0.054,0.734-0.215,1.088-0.469
		L59.615,5.828z"/>
	<path opacity="0.9882" fill="#999999" d="M11.432,3.157c0.299,0.075,0.487,0.172,0.501,0.277c0.032,0.239,0.235,1.316,0.452,2.395
		l7.246,23.681c0.353,0.254,0.716,0.415,1.088,0.469c-0.241-0.238-0.44-0.506-0.573-0.787L12.385,3.829
		c-0.217-1.079-0.42-2.156-0.452-2.395c-0.021-0.157-0.43-0.296-1.021-0.372c0.183,0.275,0.308,0.588,0.352,0.92
		C11.264,1.982,11.321,2.409,11.432,3.157z"/>
	<path opacity="0.9882" fill="#999999" d="M1,3.27V2c0-0.293,0.064-0.571,0.178-0.822C0.485,1.493,0,2.193,0,3v2
		C0,4.264,0.403,3.617,1,3.27z"/>
	<path opacity="0.9882" fill="#999999" d="M70.822,1.178C70.936,1.429,71,1.707,71,2v1.27c0.597,0.347,1,0.994,1,1.73V3
		C72,2.193,71.515,1.493,70.822,1.178z"/>
	<path opacity="0.9961" fill="#989898" d="M60.568,3.156c-0.3,0.075-0.488,0.172-0.502,0.277c-0.032,0.239-0.235,1.316-0.451,2.395
		l-7.247,23.683C56.867,26.28,59.85,7.993,60.568,3.156z"/>
	<path opacity="0.9961" fill="#989898" d="M71,3.27V34c0,1.1-0.523,2.732-1.162,3.627l-7.675,10.745C61.523,49.268,60.1,50,59,50H13
		c-1.1,0-2.523-0.732-3.162-1.627L2.162,37.627C1.523,36.732,1,35.1,1,34V3.27C0.403,3.617,0,4.264,0,5v31.32
		c0,1.1,0.523,2.733,1.163,3.628l8.16,11.425C9.962,52.268,11.385,53,12.485,53h47.03c1.1,0,2.523-0.732,3.163-1.628l8.16-11.425
		C71.477,39.052,72,37.42,72,36.32V5C72,4.264,71.597,3.617,71,3.27z"/>
	<path opacity="0.9961" fill="#989898" d="M19.631,29.51L12.385,5.829c-0.217-1.079-0.42-2.156-0.452-2.395
		c-0.014-0.105-0.202-0.202-0.501-0.277C12.15,7.996,15.133,26.28,19.631,29.51z"/>
	<path opacity="0.9882" fill="#D8D8D8" d="M70,1c0.293,0,0.571,0.064,0.822,0.178C70.507,0.485,69.807,0,69,0h-6
		c-0.765,0-1.491,0.432-1.911,1.062C61.395,1.022,61.749,1,62.124,1H70z"/>
	<path opacity="0.9882" fill="#D8D8D8" d="M49,31c0.788,0,1.67-0.418,2.28-1.02C51.187,29.993,51.094,30,51,30c-6,0-24,0-30,0
		c-0.094,0-0.188-0.007-0.281-0.02C21.329,30.582,22.212,31,23,31H49z"/>
	<path opacity="0.9882" fill="#D8D8D8" d="M9.875,1c0.375,0,0.73,0.023,1.037,0.062C10.492,0.432,9.766,0,9,0H3
		C2.193,0,1.493,0.485,1.178,1.178C1.429,1.064,1.707,1,2,1H9.875z"/>
	<path fill="#D7D7D7" d="M1,3.27C1.295,3.098,1.636,3,2,3h7.875c0.615,0,1.177,0.061,1.557,0.157
		c-0.111-0.748-0.168-1.175-0.168-1.175c-0.044-0.331-0.169-0.645-0.352-0.92C10.605,1.023,10.25,1,9.875,1H2
		C1.707,1,1.429,1.064,1.178,1.178C1.064,1.429,1,1.707,1,2V3.27z"/>
	<path fill="#D7D7D7" d="M60.568,3.156C60.949,3.061,61.509,3,62.124,3H70c0.364,0,0.705,0.098,1,0.27V2
		c0-0.293-0.064-0.571-0.178-0.822C70.571,1.064,70.293,1,70,1h-7.876c-0.375,0-0.729,0.023-1.035,0.062
		c-0.184,0.275-0.309,0.589-0.353,0.92C60.736,1.982,60.679,2.408,60.568,3.156z"/>
	<path fill="#D7D7D7" d="M20.146,31.192C20.616,32.186,21.9,33,23,33h26c1.1,0,2.384-0.814,2.854-1.809l0.514-1.68
		c-0.353,0.254-0.716,0.414-1.088,0.469C50.67,30.582,49.788,31,49,31H23c-0.788,0-1.671-0.418-2.281-1.02
		c-0.372-0.054-0.734-0.215-1.088-0.469L20.146,31.192z"/>
	<path fill="#D7D7D7" d="M62.124,3c-0.615,0-1.175,0.061-1.556,0.156c-0.718,4.837-3.701,23.124-8.2,26.355l-0.514,1.68
		C51.384,32.186,50.1,33,49,33H23c-1.1,0-2.384-0.814-2.854-1.808l-0.515-1.682c-4.499-3.231-7.481-21.515-8.2-26.354
		C11.052,3.061,10.491,3,9.875,3H2C1.636,3,1.295,3.098,1,3.27V34c0,1.1,0.523,2.732,1.162,3.627l7.676,10.746
		C10.477,49.268,11.9,50,13,50h46c1.1,0,2.523-0.732,3.163-1.628l7.675-10.745C70.477,36.732,71,35.1,71,34V3.27
		C70.705,3.098,70.364,3,70,3H62.124z"/>
</g>
</svg>
