<?xml version="1.0" encoding="utf-8"?>
<!-- Generator: Adobe Illustrator 17.0.2, SVG Export Plug-In . SVG Version: 6.00 Build 0)  -->
<!DOCTYPE svg PUBLIC "-//W3C//DTD SVG 1.1//EN" "http://www.w3.org/Graphics/SVG/1.1/DTD/svg11.dtd">
<svg version="1.1" id="Layer_1" xmlns="http://www.w3.org/2000/svg" xmlns:xlink="http://www.w3.org/1999/xlink" x="0px" y="0px"
	 width="23.917px" height="22.417px" viewBox="-0.721 -1.208 23.917 22.417" enable-background="new -0.721 -1.208 23.917 22.417"
	 xml:space="preserve">
<g>
	<path fill="#FFFFFF" d="M9.485,2.756C8.212,3.545,6.762,4.389,5.36,5.204L3.98,6.008C3.597,6.263,3.088,6.404,2.563,6.404
		c-0.002,0-0.003,0-0.004,0c-0.281,0.02-0.569,0.027-0.86,0.027c-0.289,0-0.579-0.007-0.868-0.014
		c-0.195-0.004-0.389-0.009-0.58-0.011v6.42c0.191-0.002,0.385-0.007,0.58-0.011c0.289-0.007,0.579-0.014,0.868-0.014
		c0.29,0,0.578,0.007,0.877,0.029c0.26,0.036,0.916,0.148,1.396,0.389c0.856,0.533,1.804,1.11,2.753,1.687
		c0.951,0.578,1.901,1.157,2.759,1.689c0.159,0.1,0.312,0.199,0.465,0.298c0.185,0.121,0.371,0.243,0.57,0.364h0.001V2.09
		c-0.254,0.195-0.507,0.347-0.754,0.495L9.485,2.756z"/>
	<path fill="#232323" d="M9.911,1.297C9.7,1.458,9.483,1.589,9.252,1.727L8.965,1.902c-1.296,0.803-2.79,1.672-4.108,2.438
		L3.477,5.144L3.451,5.159L3.426,5.176C3.211,5.319,2.888,5.404,2.563,5.404H2.527L2.488,5.406C2.23,5.425,1.966,5.431,1.699,5.431
		c-0.281,0-0.562-0.007-0.843-0.014L0.703,5.414L0.262,5.406l-1.011-0.011v1.011v6.42v1.01l1.01-0.011
		c0.146-0.001,0.293-0.005,0.441-0.008l0.149-0.003c0.285-0.007,0.567-0.014,0.847-0.014c0.255,0,0.508,0.006,0.771,0.024
		c0.306,0.045,0.737,0.139,1.018,0.271c0.847,0.527,1.782,1.096,2.718,1.665c0.948,0.576,1.896,1.154,2.752,1.684
		c0.148,0.093,0.297,0.189,0.445,0.285c0.206,0.135,0.396,0.259,0.598,0.381l1.519,0.924l0-1.778L11.52,2.09l0-2.029L9.911,1.297z
		 M11.02,18.144l-0.759-0.459c-0.199-0.12-0.384-0.241-0.568-0.361l-0.477-0.307c-0.853-0.528-1.802-1.105-2.751-1.683
		c-0.95-0.579-1.9-1.157-2.757-1.69c-0.389-0.193-1.018-0.293-1.201-0.318c-0.255-0.018-0.53-0.024-0.808-0.024
		c-0.285,0-0.57,0.007-0.854,0.015l-1.093,0.016V5.899l1.089,0.018c0.321,0.008,0.59,0.014,0.858,0.014
		c0.279,0,0.555-0.007,0.824-0.026c0.466-0.001,0.882-0.115,1.18-0.314l1.405-0.819c1.32-0.767,2.815-1.637,4.113-2.441l0.285-0.173
		c0.234-0.14,0.472-0.282,0.709-0.464l0.805-0.618V18.144z"/>
	<path fill="#232323" d="M9.506,2.158L9.221,2.331C7.924,3.135,6.428,4.005,5.109,4.772L3.703,5.591
		C3.405,5.79,2.989,5.904,2.523,5.905C2.254,5.924,1.978,5.931,1.699,5.931c-0.268,0-0.537-0.006-0.858-0.014l-1.089-0.018v7.432
		l1.093-0.016c0.284-0.008,0.57-0.015,0.854-0.015c0.278,0,0.553,0.007,0.808,0.024c0.183,0.025,0.812,0.125,1.201,0.318
		c0.857,0.533,1.807,1.111,2.757,1.69c0.95,0.577,1.899,1.154,2.751,1.683l0.477,0.307c0.184,0.12,0.37,0.241,0.568,0.361
		l0.759,0.459V1.076l-0.805,0.618C9.978,1.876,9.74,2.018,9.506,2.158z M10.52,17.257L10.52,17.257
		c-0.2-0.121-0.386-0.243-0.571-0.364c-0.153-0.099-0.306-0.198-0.465-0.298c-0.858-0.532-1.808-1.111-2.759-1.689
		c-0.949-0.577-1.897-1.154-2.753-1.687c-0.48-0.241-1.136-0.353-1.396-0.389c-0.299-0.022-0.587-0.029-0.877-0.029
		c-0.289,0-0.579,0.007-0.868,0.014c-0.195,0.004-0.389,0.009-0.58,0.011v-6.42c0.191,0.002,0.385,0.007,0.58,0.011
		C1.12,6.424,1.41,6.431,1.699,6.431c0.291,0,0.579-0.007,0.86-0.027c0.001,0,0.002,0,0.004,0c0.525,0,1.034-0.141,1.417-0.396
		l1.38-0.804c1.402-0.815,2.852-1.659,4.125-2.448l0.281-0.171c0.247-0.148,0.5-0.3,0.754-0.495V17.257z"/>
</g>
<g>
	<path fill="#FFFFFF" d="M18.504,0.382l-1.188,1.189c1.398,2.133,3.005,5.273,3.005,8.429c0,3.157-1.608,6.296-3.005,8.43
		l1.188,1.188c2.438-3.321,3.625-6.47,3.625-9.618S20.942,3.703,18.504,0.382z"/>
	<path fill="#232323" d="M19.31-0.21l-0.69-0.94l-0.824,0.824l-1.188,1.189l-0.575,0.575l0.446,0.68
		c1.296,1.978,2.841,4.95,2.841,7.881c0,2.927-1.545,5.902-2.842,7.882l-0.445,0.68l0.575,0.575l1.188,1.188l0.824,0.824
		l0.689-0.939c2.57-3.5,3.819-6.84,3.819-10.21S21.88,3.291,19.31-0.21z M18.837,19.914l-0.345,0.47l-1.888-1.888l0.223-0.341
		C18.16,16.119,19.75,13.052,19.75,10c0-3.055-1.59-6.121-2.923-8.155l-0.223-0.34l1.888-1.889l0.345,0.47
		c2.504,3.413,3.722,6.655,3.722,9.914S21.341,16.502,18.837,19.914z"/>
	<path fill="#232323" d="M18.837,0.086l-0.345-0.47l-1.888,1.889l0.223,0.34C18.16,3.879,19.75,6.945,19.75,10
		c0,3.052-1.59,6.119-2.923,8.155l-0.223,0.341l1.888,1.888l0.345-0.47c2.504-3.412,3.722-6.655,3.722-9.914
		S21.341,3.499,18.837,0.086z M18.504,19.618l-1.188-1.188c1.397-2.134,3.005-5.273,3.005-8.43c0-3.156-1.607-6.296-3.005-8.429
		l1.188-1.189c2.438,3.321,3.625,6.47,3.625,9.618S20.942,16.297,18.504,19.618z"/>
</g>
<g>
	<path fill="#FFFFFF" d="M14.638,4.212L13.423,5.4c0.762,0.95,1.443,3.076,1.443,4.604c0,2.025-0.719,3.746-1.443,4.603l1.186,1.189
		c0.802-0.951,2.065-3.34,2.065-5.792C16.674,8.067,15.406,5.222,14.638,4.212z"/>
	<path fill="#232323" d="M15.434,3.607l-0.685-0.901l-0.81,0.792l-1.215,1.188l-0.648,0.634l0.567,0.707
		c0.566,0.705,1.223,2.597,1.223,3.978c0,1.747-0.606,3.247-1.207,3.958l-0.593,0.701l0.648,0.65l1.186,1.189l0.77,0.772
		l0.703-0.833c0.925-1.097,2.301-3.716,2.301-6.437C17.674,7.706,16.238,4.664,15.434,3.607z M14.991,16.118l-0.351,0.417
		l-1.896-1.899l0.297-0.351c0.659-0.781,1.325-2.407,1.325-4.281c0-1.376-0.636-3.422-1.333-4.291l-0.284-0.354l1.945-1.901
		l0.343,0.451c0.871,1.147,2.138,4.092,2.138,6.094C17.174,12.59,15.869,15.077,14.991,16.118z"/>
	<path fill="#232323" d="M15.037,3.91l-0.343-0.451l-1.945,1.901l0.284,0.354c0.697,0.869,1.333,2.915,1.333,4.291
		c0,1.874-0.666,3.5-1.325,4.281l-0.297,0.351l1.896,1.899l0.351-0.417c0.878-1.041,2.184-3.528,2.184-6.114
		C17.174,8.001,15.908,5.057,15.037,3.91z M14.609,15.796l-1.186-1.189c0.724-0.857,1.443-2.578,1.443-4.603
		c0-1.528-0.681-3.654-1.443-4.604l1.215-1.188c0.768,1.01,2.036,3.855,2.036,5.792C16.674,12.456,15.411,14.845,14.609,15.796z"/>
</g>
</svg>
