<?xml version="1.0" encoding="utf-8"?>
<!-- Generator: Adobe Illustrator 17.0.2, SVG Export Plug-In . SVG Version: 6.00 Build 0)  -->
<!DOCTYPE svg PUBLIC "-//W3C//DTD SVG 1.1//EN" "http://www.w3.org/Graphics/SVG/1.1/DTD/svg11.dtd">
<svg version="1.1" id="Layer_1" xmlns="http://www.w3.org/2000/svg" xmlns:xlink="http://www.w3.org/1999/xlink" x="0px" y="0px"
	 width="72px" height="55px" viewBox="0 0 72 55" enable-background="new 0 0 72 55" xml:space="preserve">
<g>
	<path fill="none" d="M52.746,29.189c-0.085,0.078-0.171,0.149-0.257,0.217C52.575,29.338,52.661,29.267,52.746,29.189z"/>
	<path fill="none" d="M53.254,28.653c-0.083,0.099-0.167,0.191-0.251,0.28C53.087,28.844,53.171,28.752,53.254,28.653z"/>
	<path fill="none" d="M20.578,29.939c-0.089-0.02-0.177-0.045-0.265-0.076C20.401,29.894,20.489,29.919,20.578,29.939z"/>
	<path fill="none" d="M52.224,29.595c-0.087,0.056-0.174,0.105-0.262,0.149C52.05,29.7,52.137,29.651,52.224,29.595z"/>
	<path fill="none" d="M51.688,29.862c-0.088,0.032-0.177,0.057-0.267,0.077C51.511,29.919,51.6,29.894,51.688,29.862z"/>
	<path fill="none" d="M53.748,27.997c-0.081,0.119-0.164,0.232-0.246,0.341C53.584,28.229,53.667,28.116,53.748,27.997z"/>
	<path fill="none" d="M55.574,24.387c-0.073,0.182-0.146,0.358-0.22,0.534C55.428,24.745,55.501,24.569,55.574,24.387z"/>
	<path fill="none" d="M55.993,23.287c-0.07,0.194-0.142,0.383-0.214,0.572C55.85,23.67,55.922,23.481,55.993,23.287z"/>
	<path fill="none" d="M54.691,26.37c-0.077,0.154-0.156,0.302-0.234,0.448C54.536,26.671,54.614,26.524,54.691,26.37z"/>
	<path fill="none" d="M54.227,27.233c-0.08,0.138-0.16,0.268-0.241,0.397C54.067,27.501,54.147,27.371,54.227,27.233z"/>
	<path fill="none" d="M55.14,25.417c-0.075,0.169-0.152,0.333-0.228,0.495C54.989,25.75,55.065,25.587,55.14,25.417z"/>
	<path fill="none" d="M15.405,21.511c-0.06-0.189-0.121-0.378-0.181-0.571C15.284,21.132,15.344,21.321,15.405,21.511z"/>
	<path fill="none" d="M20.036,29.743c-0.086-0.044-0.172-0.092-0.258-0.146C19.863,29.651,19.949,29.7,20.036,29.743z"/>
	<path fill="none" d="M16.636,24.896c-0.068-0.162-0.136-0.325-0.203-0.493C16.499,24.571,16.567,24.733,16.636,24.896z"/>
	<path fill="none" d="M17.077,25.891c-0.071-0.151-0.142-0.302-0.211-0.459C16.936,25.589,17.006,25.74,17.077,25.891z"/>
	<path fill="none" d="M16.21,23.828c-0.066-0.173-0.132-0.346-0.196-0.524C16.078,23.482,16.144,23.655,16.21,23.828z"/>
	<path fill="none" d="M15.799,22.696c-0.063-0.181-0.126-0.362-0.188-0.547C15.673,22.333,15.736,22.514,15.799,22.696z"/>
	<path fill="none" d="M17.535,26.802c-0.074-0.138-0.147-0.276-0.22-0.421C17.387,26.526,17.461,26.664,17.535,26.802z"/>
	<path fill="none" d="M56.396,22.126c-0.068,0.205-0.138,0.406-0.208,0.607C56.258,22.532,56.327,22.332,56.396,22.126z"/>
	<path fill="none" d="M18.993,28.929c-0.081-0.086-0.162-0.176-0.243-0.271C18.83,28.754,18.911,28.843,18.993,28.929z"/>
	<path fill="none" d="M19.508,29.403c-0.084-0.066-0.168-0.136-0.251-0.212C19.34,29.268,19.424,29.337,19.508,29.403z"/>
	<path fill="none" d="M18.492,28.331c-0.079-0.105-0.158-0.212-0.235-0.326C18.335,28.118,18.413,28.226,18.492,28.331z"/>
	<path fill="none" d="M18.006,27.618c-0.076-0.122-0.152-0.246-0.228-0.376C17.854,27.373,17.93,27.496,18.006,27.618z"/>
	<path fill="none" d="M60.359,4.522c-0.023,0.143-0.048,0.301-0.073,0.453C60.311,4.822,60.336,4.665,60.359,4.522z"/>
	<path fill="none" d="M60.473,3.788c-0.018,0.117-0.039,0.25-0.058,0.376C60.434,4.038,60.455,3.905,60.473,3.788z"/>
	<path fill="none" d="M60.225,5.357C60.2,5.512,60.171,5.68,60.144,5.844C60.172,5.68,60.199,5.512,60.225,5.357z"/>
	<path fill="none" d="M60.07,6.288c-0.03,0.176-0.062,0.364-0.094,0.548C60.008,6.652,60.041,6.465,60.07,6.288z"/>
	<path fill="none" d="M60.567,3.164c-0.013,0.091-0.03,0.199-0.045,0.299C60.537,3.363,60.553,3.255,60.567,3.164z"/>
	<path fill="none" d="M59.898,7.292c-0.033,0.19-0.069,0.389-0.104,0.586C59.829,7.681,59.865,7.482,59.898,7.292z"/>
	<path fill="none" d="M60.641,2.66c-0.01,0.071-0.024,0.163-0.036,0.245C60.617,2.822,60.63,2.732,60.641,2.66z"/>
	<path fill="none" d="M70.915,1.455c0.013,0.044,0.031,0.085,0.041,0.13C70.945,1.54,70.927,1.499,70.915,1.455z"/>
	<path fill="none" d="M1.045,1.586c0.01-0.046,0.029-0.088,0.041-0.133C1.073,1.498,1.055,1.54,1.045,1.586z"/>
	<path fill="none" d="M60.91,1.405c-0.02,0.044-0.043,0.087-0.059,0.133C60.867,1.492,60.89,1.449,60.91,1.405z"/>
	<path fill="none" d="M60.693,2.291c-0.007,0.05-0.017,0.122-0.026,0.184C60.676,2.413,60.686,2.341,60.693,2.291z"/>
	<path fill="none" d="M57.152,19.672c-0.064,0.223-0.129,0.443-0.195,0.663C57.023,20.115,57.089,19.895,57.152,19.672z"/>
	<path fill="none" d="M57.843,17.103c-0.058,0.231-0.118,0.46-0.178,0.69C57.725,17.563,57.785,17.334,57.843,17.103z"/>
	<path fill="none" d="M58.464,14.504c-0.052,0.23-0.106,0.462-0.16,0.693C58.358,14.966,58.412,14.735,58.464,14.504z"/>
	<path fill="none" d="M58.162,15.803c-0.056,0.234-0.114,0.468-0.171,0.702C58.049,16.27,58.106,16.037,58.162,15.803z"/>
	<path fill="none" d="M57.505,18.4c-0.061,0.226-0.123,0.45-0.185,0.674C57.382,18.849,57.445,18.626,57.505,18.4z"/>
	<path fill="none" d="M56.783,20.917c-0.067,0.216-0.135,0.429-0.203,0.641C56.648,21.346,56.716,21.133,56.783,20.917z"/>
	<path fill="none" d="M59.705,8.378c-0.037,0.202-0.076,0.411-0.114,0.618C59.629,8.789,59.668,8.58,59.705,8.378z"/>
	<path fill="none" d="M59.494,9.515c-0.042,0.222-0.086,0.45-0.13,0.677C59.408,9.965,59.452,9.737,59.494,9.515z"/>
	<path fill="none" d="M59.265,10.704c-0.044,0.222-0.09,0.45-0.135,0.676C59.175,11.153,59.221,10.927,59.265,10.704z"/>
	<path fill="none" d="M58.749,13.214c-0.049,0.229-0.101,0.461-0.152,0.692C58.648,13.675,58.699,13.444,58.749,13.214z"/>
	<path fill="none" d="M59.014,11.953c-0.045,0.22-0.093,0.443-0.139,0.666C58.921,12.396,58.969,12.173,59.014,11.953z"/>
	<path fill="none" d="M15.027,20.284c-0.058-0.196-0.116-0.391-0.173-0.59C14.911,19.893,14.969,20.088,15.027,20.284z"/>
	<path fill="none" d="M12.385,8.866c-0.029-0.155-0.058-0.314-0.086-0.466C12.327,8.552,12.357,8.71,12.385,8.866z"/>
	<path fill="none" d="M11.333,2.474c-0.009-0.061-0.019-0.133-0.026-0.184C11.314,2.341,11.324,2.413,11.333,2.474z"/>
	<path fill="none" d="M12.608,10.048c-0.032-0.168-0.066-0.339-0.097-0.504C12.542,9.709,12.576,9.879,12.608,10.048z"/>
	<path fill="none" d="M11.395,2.905c-0.012-0.082-0.025-0.173-0.036-0.245C11.37,2.732,11.383,2.822,11.395,2.905z"/>
	<path fill="none" d="M13.987,16.417c-0.048-0.195-0.096-0.39-0.142-0.585C13.892,16.028,13.94,16.222,13.987,16.417z"/>
	<path fill="none" d="M11.695,4.856c-0.017-0.106-0.035-0.219-0.051-0.32C11.659,4.637,11.678,4.749,11.695,4.856z"/>
	<path fill="none" d="M13.104,12.516c-0.038-0.179-0.076-0.36-0.113-0.538C13.028,12.156,13.066,12.336,13.104,12.516z"/>
	<path fill="none" d="M12.846,11.261c-0.035-0.174-0.071-0.35-0.105-0.522C12.776,10.911,12.811,11.087,12.846,11.261z"/>
	<path fill="none" d="M13.677,15.113c-0.045-0.195-0.091-0.389-0.135-0.583C13.586,14.724,13.632,14.919,13.677,15.113z"/>
	<path fill="none" d="M11.478,3.463c-0.015-0.1-0.031-0.208-0.045-0.299C11.447,3.255,11.463,3.363,11.478,3.463z"/>
	<path fill="none" d="M11.575,4.096c-0.016-0.102-0.033-0.212-0.048-0.307C11.542,3.884,11.559,3.993,11.575,4.096z"/>
	<path fill="none" d="M11.842,5.761c-0.022-0.13-0.044-0.267-0.065-0.392C11.798,5.495,11.82,5.63,11.842,5.761z"/>
	<path fill="none" d="M14.664,19.017c-0.055-0.198-0.11-0.394-0.163-0.594C14.554,18.623,14.609,18.819,14.664,19.017z"/>
	<path fill="none" d="M11.15,1.538c-0.017-0.046-0.04-0.089-0.06-0.133C11.11,1.449,11.133,1.492,11.15,1.538z"/>
	<path fill="none" d="M12.005,6.727c-0.024-0.143-0.05-0.29-0.073-0.428C11.955,6.437,11.98,6.584,12.005,6.727z"/>
	<path fill="none" d="M14.318,17.726c-0.051-0.198-0.103-0.395-0.153-0.594C14.214,17.33,14.266,17.528,14.318,17.726z"/>
	<path fill="none" d="M12.185,7.758c-0.026-0.148-0.054-0.3-0.079-0.444C12.131,7.459,12.158,7.61,12.185,7.758z"/>
	<path fill="none" d="M13.382,13.812c-0.042-0.189-0.084-0.379-0.125-0.567C13.298,13.433,13.341,13.622,13.382,13.812z"/>
	<path opacity="0" d="M62.678,51.372C62.038,52.268,60.615,53,59.515,53h-47.03c-1.1,0-2.523-0.732-3.162-1.627l-8.16-11.425
		C0.523,39.053,0,37.42,0,36.32v2c0,1.1,0.523,2.733,1.163,3.628l8.16,11.425C9.962,54.268,11.385,55,12.485,55h47.03
		c1.1,0,2.523-0.732,3.163-1.628l8.16-11.425C71.477,41.052,72,39.42,72,38.32v-2c0,1.1-0.523,2.732-1.162,3.627L62.678,51.372z"/>
	<path fill="#5D753B" d="M11.15,1.538c0.053,0.143,0.094,0.291,0.115,0.444c0,0,0.014,0.109,0.043,0.309
		c0.007,0.05,0.017,0.122,0.026,0.184c0.009,0.061,0.016,0.113,0.026,0.185c0.01,0.071,0.024,0.163,0.036,0.245
		c0.013,0.086,0.024,0.163,0.038,0.26c0.013,0.091,0.03,0.199,0.045,0.299c0.016,0.107,0.031,0.208,0.049,0.326
		c0.015,0.095,0.032,0.205,0.048,0.307c0.022,0.144,0.044,0.284,0.068,0.44c0.016,0.101,0.034,0.214,0.051,0.32
		c0.027,0.168,0.053,0.334,0.083,0.514c0.02,0.125,0.043,0.261,0.065,0.392c0.029,0.177,0.058,0.351,0.089,0.538
		c0.023,0.138,0.049,0.285,0.073,0.428c0.033,0.194,0.066,0.386,0.101,0.588c0.025,0.144,0.053,0.296,0.079,0.444
		c0.038,0.212,0.075,0.422,0.115,0.641c0.028,0.152,0.057,0.311,0.086,0.466c0.041,0.224,0.082,0.447,0.126,0.678
		c0.031,0.165,0.065,0.336,0.097,0.504c0.044,0.229,0.088,0.457,0.134,0.691c0.034,0.172,0.07,0.348,0.105,0.522
		c0.048,0.238,0.095,0.475,0.145,0.717c0.037,0.178,0.075,0.358,0.113,0.538c0.051,0.242,0.101,0.484,0.154,0.729
		c0.041,0.188,0.083,0.378,0.125,0.567c0.053,0.239,0.105,0.478,0.159,0.718c0.044,0.194,0.09,0.389,0.135,0.583
		c0.056,0.24,0.111,0.479,0.168,0.719c0.047,0.195,0.095,0.39,0.142,0.585c0.058,0.238,0.117,0.477,0.177,0.715
		c0.05,0.199,0.102,0.396,0.153,0.594c0.061,0.233,0.121,0.466,0.183,0.698c0.053,0.199,0.108,0.396,0.163,0.594
		c0.063,0.227,0.126,0.454,0.19,0.678c0.057,0.198,0.115,0.394,0.173,0.59c0.065,0.22,0.13,0.439,0.197,0.655
		c0.059,0.193,0.12,0.381,0.181,0.571c0.068,0.214,0.137,0.428,0.207,0.638c0.062,0.185,0.125,0.366,0.188,0.547
		c0.071,0.205,0.142,0.409,0.215,0.608c0.065,0.178,0.13,0.351,0.196,0.524c0.074,0.194,0.147,0.387,0.222,0.575
		c0.067,0.168,0.135,0.33,0.203,0.493c0.076,0.182,0.153,0.362,0.23,0.536c0.07,0.157,0.141,0.308,0.211,0.459
		c0.078,0.167,0.157,0.332,0.237,0.491c0.073,0.145,0.146,0.283,0.22,0.421c0.081,0.151,0.162,0.299,0.244,0.44
		c0.075,0.13,0.151,0.254,0.228,0.376c0.083,0.133,0.167,0.263,0.251,0.386c0.078,0.114,0.156,0.221,0.235,0.326
		c0.085,0.114,0.171,0.224,0.258,0.327c0.08,0.096,0.161,0.185,0.243,0.271c0.087,0.093,0.175,0.181,0.264,0.262
		c0.083,0.076,0.167,0.146,0.251,0.212c0.09,0.07,0.18,0.135,0.27,0.193c0.085,0.055,0.172,0.103,0.258,0.146
		c0.092,0.046,0.184,0.086,0.277,0.12c0.088,0.031,0.176,0.056,0.265,0.076c0.04,0.009,0.081,0.011,0.122,0.018
		c-0.231-0.233-0.424-0.491-0.553-0.764L12.385,3.829c-0.217-1.079-0.42-2.156-0.452-2.395c-0.021-0.157-0.43-0.296-1.021-0.372
		c0.013,0.02,0.021,0.044,0.034,0.065c0.055,0.089,0.102,0.182,0.145,0.278C11.11,1.449,11.133,1.492,11.15,1.538z"/>
	<path fill="#5D753B" d="M51.688,29.862c0.092-0.033,0.183-0.073,0.273-0.118c0.088-0.044,0.175-0.093,0.262-0.149
		c0.089-0.057,0.177-0.121,0.265-0.189c0.086-0.068,0.172-0.139,0.257-0.217c0.086-0.079,0.172-0.165,0.257-0.255
		c0.084-0.089,0.168-0.181,0.251-0.28c0.083-0.099,0.166-0.205,0.248-0.315c0.083-0.11,0.165-0.222,0.246-0.341
		c0.08-0.117,0.159-0.241,0.238-0.367c0.081-0.129,0.161-0.26,0.241-0.397c0.077-0.134,0.154-0.274,0.23-0.415
		c0.079-0.146,0.157-0.294,0.234-0.448c0.074-0.148,0.148-0.302,0.221-0.457c0.077-0.162,0.153-0.326,0.228-0.495
		c0.072-0.162,0.143-0.329,0.213-0.497c0.074-0.176,0.148-0.352,0.22-0.534c0.069-0.173,0.137-0.351,0.205-0.529
		c0.072-0.189,0.144-0.378,0.214-0.572c0.066-0.182,0.131-0.368,0.195-0.554c0.07-0.201,0.14-0.401,0.208-0.607
		c0.062-0.187,0.123-0.378,0.184-0.568c0.068-0.212,0.136-0.425,0.203-0.641c0.059-0.192,0.117-0.387,0.175-0.582
		c0.065-0.22,0.131-0.44,0.195-0.663c0.057-0.198,0.112-0.399,0.168-0.599c0.062-0.224,0.125-0.448,0.185-0.674
		c0.054-0.201,0.107-0.404,0.159-0.607c0.06-0.23,0.12-0.459,0.178-0.69c0.05-0.199,0.099-0.399,0.148-0.599
		c0.057-0.234,0.115-0.468,0.171-0.702c0.048-0.202,0.095-0.404,0.142-0.606c0.054-0.231,0.108-0.463,0.16-0.693
		c0.045-0.2,0.089-0.399,0.133-0.598c0.051-0.231,0.103-0.462,0.152-0.692c0.043-0.2,0.084-0.397,0.126-0.596
		c0.047-0.222,0.094-0.446,0.139-0.666c0.04-0.193,0.077-0.382,0.116-0.573c0.046-0.226,0.092-0.454,0.135-0.676
		c0.034-0.173,0.066-0.341,0.099-0.512c0.044-0.227,0.088-0.456,0.13-0.677c0.033-0.176,0.064-0.346,0.096-0.519
		c0.038-0.207,0.078-0.417,0.114-0.618c0.031-0.171,0.06-0.334,0.089-0.5c0.035-0.197,0.071-0.396,0.104-0.586
		c0.027-0.157,0.052-0.304,0.078-0.456c0.032-0.184,0.064-0.371,0.094-0.548c0.026-0.154,0.049-0.297,0.074-0.445
		c0.027-0.164,0.055-0.332,0.081-0.487c0.022-0.133,0.041-0.255,0.061-0.382c0.024-0.153,0.05-0.31,0.073-0.453
		c0.02-0.126,0.037-0.239,0.056-0.357c0.02-0.126,0.041-0.259,0.058-0.376c0.018-0.117,0.033-0.218,0.049-0.325
		c0.015-0.1,0.031-0.208,0.045-0.299c0.014-0.096,0.026-0.174,0.038-0.26c0.012-0.082,0.025-0.173,0.036-0.245
		c0.01-0.072,0.018-0.124,0.026-0.185c0.009-0.061,0.019-0.133,0.026-0.184c0.028-0.2,0.043-0.309,0.043-0.309
		c0.02-0.153,0.062-0.301,0.115-0.445c0.017-0.046,0.04-0.088,0.059-0.133C60.953,1.309,61,1.215,61.055,1.126
		c0.013-0.021,0.02-0.044,0.034-0.064c-0.592,0.076-1.002,0.214-1.023,0.371c-0.032,0.239-0.235,1.316-0.451,2.395l-7.761,25.363
		c-0.129,0.274-0.322,0.532-0.554,0.766c0.04-0.006,0.081-0.009,0.121-0.018C51.511,29.919,51.6,29.894,51.688,29.862z"/>
	<path fill="#5D753B" d="M70.822,1.178c0.003,0.007,0.004,0.015,0.008,0.023c0.036,0.081,0.06,0.168,0.085,0.255
		c0.013,0.044,0.031,0.085,0.041,0.13C70.984,1.719,71,1.858,71,2v32c0,1.1-0.523,2.732-1.162,3.627l-7.675,10.745
		C61.523,49.268,60.1,50,59,50H13c-1.1,0-2.523-0.732-3.162-1.627L2.162,37.627C1.523,36.732,1,35.1,1,34V2
		c0-0.142,0.016-0.28,0.045-0.414c0.01-0.046,0.029-0.088,0.041-0.133C1.111,1.367,1.135,1.281,1.17,1.201
		c0.003-0.007,0.004-0.016,0.008-0.023C0.485,1.493,0,2.193,0,3v2v31.32c0,1.1,0.523,2.733,1.163,3.628l8.16,11.425
		C9.962,52.268,11.385,53,12.485,53h47.03c1.1,0,2.523-0.732,3.163-1.628l8.16-11.425C71.477,39.052,72,37.42,72,36.32V3
		C72,2.193,71.515,1.493,70.822,1.178z"/>
	<path fill="#A0C572" d="M1.045,1.586C1.016,1.72,1,1.858,1,2v32c0,1.1,0.523,2.732,1.162,3.627l7.676,10.746
		C10.477,49.268,11.9,50,13,50h46c1.1,0,2.523-0.732,3.163-1.628l7.675-10.745C70.477,36.732,71,35.1,71,34V2
		c0-0.142-0.016-0.281-0.045-0.415c-0.01-0.045-0.028-0.086-0.041-0.13c-0.025-0.086-0.049-0.173-0.085-0.255
		C70.519,0.496,69.816,0,69,0h-6c-0.79,0-1.532,0.463-1.945,1.126C61,1.215,60.953,1.309,60.91,1.405
		c-0.02,0.044-0.043,0.087-0.059,0.133c-0.053,0.143-0.094,0.291-0.115,0.445c0,0-0.014,0.108-0.043,0.309
		c-0.007,0.05-0.017,0.122-0.026,0.184c-0.009,0.062-0.016,0.113-0.026,0.185c-0.01,0.072-0.024,0.162-0.036,0.245
		c-0.013,0.086-0.024,0.163-0.038,0.26c-0.014,0.091-0.03,0.199-0.045,0.299c-0.016,0.107-0.031,0.207-0.049,0.325
		c-0.018,0.117-0.039,0.25-0.058,0.376c-0.018,0.119-0.036,0.23-0.056,0.357c-0.023,0.143-0.048,0.3-0.073,0.453
		c-0.02,0.127-0.04,0.248-0.061,0.382c-0.025,0.156-0.053,0.323-0.081,0.487c-0.025,0.148-0.048,0.29-0.074,0.445
		c-0.03,0.176-0.062,0.363-0.094,0.548c-0.026,0.152-0.051,0.299-0.078,0.456c-0.033,0.19-0.069,0.389-0.104,0.586
		c-0.03,0.166-0.058,0.329-0.089,0.5c-0.037,0.202-0.076,0.411-0.114,0.618c-0.032,0.173-0.063,0.342-0.096,0.519
		c-0.042,0.222-0.086,0.45-0.13,0.677c-0.033,0.17-0.065,0.338-0.099,0.512c-0.044,0.223-0.09,0.45-0.135,0.676
		c-0.038,0.191-0.076,0.38-0.116,0.573c-0.045,0.22-0.093,0.443-0.139,0.666c-0.042,0.198-0.083,0.396-0.126,0.596
		c-0.049,0.229-0.101,0.46-0.152,0.692c-0.044,0.199-0.088,0.398-0.133,0.598c-0.052,0.231-0.106,0.462-0.16,0.693
		c-0.047,0.202-0.094,0.404-0.142,0.606c-0.056,0.234-0.114,0.468-0.171,0.702c-0.049,0.2-0.098,0.399-0.148,0.599
		c-0.058,0.231-0.118,0.46-0.178,0.69c-0.053,0.203-0.105,0.405-0.159,0.607c-0.061,0.226-0.123,0.449-0.185,0.674
		c-0.056,0.2-0.111,0.401-0.168,0.599c-0.064,0.223-0.129,0.443-0.195,0.663c-0.058,0.195-0.116,0.39-0.175,0.582
		c-0.067,0.216-0.135,0.429-0.203,0.641c-0.061,0.191-0.122,0.381-0.184,0.568c-0.068,0.205-0.138,0.406-0.208,0.607
		c-0.065,0.186-0.129,0.372-0.195,0.554c-0.07,0.194-0.142,0.383-0.214,0.572c-0.068,0.178-0.136,0.356-0.205,0.529
		c-0.073,0.182-0.146,0.358-0.22,0.534c-0.071,0.168-0.141,0.335-0.213,0.497c-0.075,0.169-0.152,0.333-0.228,0.495
		c-0.073,0.155-0.147,0.309-0.221,0.457c-0.077,0.154-0.156,0.302-0.234,0.448c-0.076,0.142-0.153,0.281-0.23,0.415
		c-0.08,0.138-0.16,0.268-0.241,0.397c-0.079,0.126-0.158,0.249-0.238,0.367c-0.081,0.119-0.164,0.232-0.246,0.341
		c-0.082,0.109-0.165,0.215-0.248,0.315c-0.083,0.099-0.167,0.191-0.251,0.28c-0.085,0.09-0.171,0.176-0.257,0.255
		c-0.085,0.078-0.171,0.149-0.257,0.217c-0.088,0.069-0.176,0.132-0.265,0.189c-0.087,0.056-0.174,0.105-0.262,0.149
		c-0.091,0.046-0.182,0.085-0.273,0.118c-0.088,0.032-0.177,0.057-0.267,0.077c-0.047,0.01-0.094,0.034-0.141,0.041
		c0.007-0.007,0.013-0.016,0.02-0.023C51.2,29.972,51.101,30,51,30c-6,0-24,0-30,0c-0.101,0-0.201-0.028-0.301-0.044
		c0.007,0.007,0.013,0.016,0.02,0.023c-0.048-0.007-0.094-0.03-0.141-0.041c-0.089-0.02-0.177-0.044-0.265-0.076
		c-0.093-0.033-0.185-0.073-0.277-0.12c-0.086-0.044-0.173-0.092-0.258-0.146c-0.091-0.058-0.181-0.123-0.27-0.193
		c-0.084-0.066-0.168-0.136-0.251-0.212c-0.089-0.081-0.177-0.17-0.264-0.262c-0.081-0.086-0.162-0.176-0.243-0.271
		c-0.087-0.103-0.172-0.213-0.258-0.327c-0.079-0.105-0.157-0.212-0.235-0.326c-0.084-0.123-0.168-0.253-0.251-0.386
		c-0.076-0.122-0.152-0.246-0.228-0.376c-0.082-0.142-0.163-0.29-0.244-0.44c-0.074-0.138-0.147-0.276-0.22-0.421
		c-0.08-0.159-0.159-0.324-0.237-0.491c-0.071-0.151-0.142-0.302-0.211-0.459c-0.078-0.175-0.154-0.355-0.23-0.536
		c-0.068-0.163-0.136-0.325-0.203-0.493c-0.075-0.188-0.149-0.381-0.222-0.575c-0.066-0.173-0.132-0.346-0.196-0.524
		c-0.072-0.2-0.144-0.404-0.215-0.608c-0.063-0.181-0.126-0.362-0.188-0.547c-0.07-0.21-0.138-0.423-0.207-0.638
		c-0.061-0.19-0.121-0.378-0.181-0.571c-0.067-0.216-0.132-0.436-0.197-0.655c-0.058-0.196-0.116-0.391-0.173-0.59
		c-0.064-0.224-0.127-0.451-0.19-0.678c-0.055-0.198-0.11-0.394-0.163-0.594c-0.062-0.232-0.123-0.465-0.183-0.698
		c-0.051-0.198-0.103-0.395-0.153-0.594c-0.06-0.238-0.118-0.476-0.177-0.715c-0.048-0.195-0.096-0.39-0.142-0.585
		c-0.057-0.24-0.113-0.479-0.168-0.719c-0.045-0.195-0.091-0.389-0.135-0.583c-0.055-0.241-0.107-0.479-0.159-0.718
		c-0.042-0.189-0.084-0.379-0.125-0.567c-0.053-0.245-0.103-0.486-0.154-0.729c-0.038-0.18-0.076-0.36-0.113-0.538
		c-0.05-0.242-0.097-0.479-0.145-0.717c-0.035-0.175-0.071-0.35-0.105-0.522c-0.046-0.234-0.09-0.462-0.134-0.691
		c-0.032-0.169-0.066-0.339-0.097-0.504c-0.044-0.231-0.084-0.453-0.126-0.678c-0.029-0.156-0.058-0.314-0.086-0.466
		c-0.04-0.219-0.077-0.429-0.115-0.641c-0.026-0.148-0.054-0.3-0.079-0.444c-0.035-0.202-0.068-0.394-0.101-0.588
		c-0.024-0.143-0.05-0.29-0.073-0.428c-0.031-0.187-0.06-0.36-0.089-0.538c-0.022-0.131-0.044-0.266-0.065-0.392
		c-0.029-0.18-0.056-0.345-0.083-0.514c-0.017-0.106-0.035-0.219-0.051-0.32c-0.025-0.156-0.046-0.296-0.068-0.44
		c-0.016-0.102-0.033-0.211-0.048-0.307c-0.018-0.118-0.033-0.218-0.049-0.326c-0.015-0.1-0.031-0.208-0.045-0.299
		c-0.014-0.097-0.026-0.174-0.038-0.26c-0.012-0.082-0.025-0.173-0.036-0.245c-0.01-0.073-0.018-0.124-0.026-0.185
		c-0.009-0.062-0.019-0.133-0.026-0.184c-0.028-0.201-0.043-0.309-0.043-0.309c-0.02-0.153-0.062-0.301-0.115-0.444
		c-0.017-0.046-0.04-0.089-0.06-0.133C11.047,1.309,11,1.215,10.945,1.127C10.532,0.464,9.79,0,9,0H3
		C2.184,0,1.481,0.496,1.17,1.201C1.135,1.281,1.111,1.367,1.086,1.453C1.073,1.498,1.054,1.54,1.045,1.586z"/>
	<path fill="#A0C572" d="M61.055,1.126C61,1.215,60.953,1.309,60.91,1.405C60.953,1.309,61,1.215,61.055,1.126z"/>
	<path fill="#A0C572" d="M58.875,12.619c-0.042,0.198-0.083,0.396-0.126,0.596C58.792,13.014,58.833,12.817,58.875,12.619z"/>
	<path fill="#A0C572" d="M60.851,1.537c-0.053,0.144-0.094,0.291-0.115,0.445C60.756,1.829,60.798,1.681,60.851,1.537z"/>
	<path fill="#A0C572" d="M59.364,10.192c-0.033,0.17-0.065,0.339-0.099,0.512C59.299,10.531,59.331,10.363,59.364,10.192z"/>
	<path fill="#A0C572" d="M59.13,11.38c-0.038,0.191-0.076,0.38-0.116,0.573C59.054,11.76,59.091,11.571,59.13,11.38z"/>
	<path fill="#A0C572" d="M11.433,3.164c-0.014-0.096-0.026-0.174-0.038-0.26C11.408,2.99,11.419,3.068,11.433,3.164z"/>
	<path fill="#A0C572" d="M11.527,3.789c-0.018-0.118-0.033-0.218-0.049-0.326C11.494,3.571,11.509,3.671,11.527,3.789z"/>
	<path fill="#A0C572" d="M1,2c0-0.142,0.016-0.28,0.045-0.414C1.016,1.72,1,1.858,1,2z"/>
	<path fill="#A0C572" d="M70.83,1.201c0.036,0.081,0.06,0.168,0.085,0.255C70.89,1.369,70.866,1.282,70.83,1.201z"/>
	<path fill="#A0C572" d="M57.991,16.504c-0.049,0.2-0.098,0.399-0.148,0.599C57.893,16.904,57.942,16.704,57.991,16.504z"/>
	<path fill="#A0C572" d="M11.643,4.535c-0.025-0.156-0.046-0.296-0.068-0.44C11.597,4.239,11.619,4.379,11.643,4.535z"/>
	<path fill="#A0C572" d="M58.597,13.906c-0.044,0.199-0.088,0.398-0.133,0.598C58.509,14.304,58.553,14.105,58.597,13.906z"/>
	<path fill="#A0C572" d="M60.414,4.165c-0.018,0.118-0.036,0.231-0.056,0.357C60.379,4.395,60.396,4.283,60.414,4.165z"/>
	<path fill="#A0C572" d="M58.304,15.197c-0.047,0.202-0.094,0.404-0.142,0.606C58.21,15.601,58.257,15.399,58.304,15.197z"/>
	<path fill="#A0C572" d="M70.955,1.585C70.984,1.719,71,1.858,71,2C71,1.858,70.984,1.719,70.955,1.585z"/>
	<path fill="#A0C572" d="M11.307,2.291c-0.028-0.2-0.043-0.309-0.043-0.309S11.278,2.09,11.307,2.291z"/>
	<path fill="#A0C572" d="M60.144,5.844c-0.024,0.148-0.048,0.291-0.074,0.445C60.096,6.134,60.12,5.992,60.144,5.844z"/>
	<path fill="#A0C572" d="M60.605,2.905c-0.013,0.086-0.024,0.163-0.038,0.26C60.581,3.068,60.592,2.99,60.605,2.905z"/>
	<path fill="#A0C572" d="M11.264,1.982c-0.02-0.153-0.062-0.301-0.115-0.444C11.202,1.681,11.244,1.829,11.264,1.982z"/>
	<path fill="#A0C572" d="M60.522,3.463c-0.016,0.107-0.031,0.208-0.049,0.325C60.491,3.671,60.506,3.571,60.522,3.463z"/>
	<path fill="#A0C572" d="M10.945,1.127C11,1.215,11.047,1.309,11.09,1.404C11.047,1.309,11.001,1.216,10.945,1.127z"/>
	<path fill="#A0C572" d="M60.286,4.975c-0.02,0.127-0.04,0.248-0.061,0.382C60.247,5.223,60.266,5.102,60.286,4.975z"/>
	<path fill="#A0C572" d="M59.794,7.878c-0.03,0.166-0.058,0.329-0.089,0.5C59.736,8.207,59.764,8.044,59.794,7.878z"/>
	<path fill="#A0C572" d="M1.17,1.201C1.135,1.281,1.111,1.367,1.086,1.453C1.111,1.367,1.135,1.281,1.17,1.201z"/>
	<path fill="#A0C572" d="M11.359,2.66c-0.01-0.072-0.018-0.124-0.026-0.185C11.342,2.536,11.349,2.587,11.359,2.66z"/>
	<path fill="#A0C572" d="M59.591,8.996c-0.032,0.172-0.063,0.342-0.096,0.519C59.528,9.339,59.559,9.169,59.591,8.996z"/>
	<path fill="#A0C572" d="M60.667,2.474c-0.009,0.061-0.016,0.113-0.026,0.185C60.651,2.587,60.659,2.536,60.667,2.474z"/>
	<path fill="#A0C572" d="M59.977,6.836c-0.026,0.152-0.051,0.299-0.078,0.456C59.925,7.135,59.95,6.988,59.977,6.836z"/>
	<path fill="#A0C572" d="M15.224,20.94c-0.067-0.216-0.132-0.436-0.197-0.655C15.092,20.504,15.157,20.723,15.224,20.94z"/>
	<path fill="#A0C572" d="M60.736,1.982c0,0-0.014,0.109-0.043,0.309C60.722,2.09,60.736,1.982,60.736,1.982z"/>
	<path fill="#A0C572" d="M13.542,14.53c-0.055-0.24-0.107-0.479-0.159-0.718C13.435,14.051,13.487,14.289,13.542,14.53z"/>
	<path fill="#A0C572" d="M19.778,29.597c-0.091-0.058-0.181-0.123-0.27-0.193C19.597,29.474,19.687,29.538,19.778,29.597z"/>
	<path fill="#A0C572" d="M19.257,29.192c-0.089-0.081-0.177-0.17-0.264-0.262C19.08,29.022,19.168,29.11,19.257,29.192z"/>
	<path fill="#A0C572" d="M13.845,15.833c-0.057-0.24-0.113-0.48-0.168-0.719C13.732,15.353,13.788,15.592,13.845,15.833z"/>
	<path fill="#A0C572" d="M18.75,28.658c-0.087-0.103-0.172-0.213-0.258-0.327C18.578,28.445,18.663,28.554,18.75,28.658z"/>
	<path fill="#A0C572" d="M18.257,28.005c-0.084-0.123-0.168-0.253-0.251-0.386C18.089,27.751,18.173,27.881,18.257,28.005z"/>
	<path fill="#A0C572" d="M51.421,29.939c-0.04,0.009-0.081,0.011-0.121,0.018c-0.007,0.007-0.013,0.016-0.02,0.023
		C51.328,29.973,51.374,29.949,51.421,29.939z"/>
	<path fill="#A0C572" d="M20.719,29.979c-0.007-0.007-0.013-0.016-0.02-0.023c-0.04-0.006-0.081-0.009-0.122-0.018
		C20.625,29.949,20.672,29.973,20.719,29.979z"/>
	<path fill="#A0C572" d="M57.665,17.793c-0.053,0.203-0.105,0.405-0.159,0.607C57.56,18.198,57.612,17.995,57.665,17.793z"/>
	<path fill="#A0C572" d="M20.313,29.863c-0.093-0.033-0.185-0.073-0.277-0.12C20.128,29.789,20.22,29.829,20.313,29.863z"/>
	<path fill="#A0C572" d="M51.962,29.744c-0.091,0.046-0.182,0.085-0.273,0.118C51.78,29.829,51.871,29.79,51.962,29.744z"/>
	<path fill="#A0C572" d="M16.014,23.304c-0.072-0.2-0.144-0.404-0.215-0.608C15.87,22.9,15.941,23.104,16.014,23.304z"/>
	<path fill="#A0C572" d="M14.854,19.695c-0.064-0.224-0.127-0.451-0.19-0.678C14.727,19.244,14.789,19.47,14.854,19.695z"/>
	<path fill="#A0C572" d="M16.432,24.403c-0.075-0.188-0.149-0.381-0.222-0.575C16.283,24.022,16.357,24.215,16.432,24.403z"/>
	<path fill="#A0C572" d="M15.611,22.148c-0.07-0.21-0.138-0.424-0.207-0.638C15.473,21.725,15.541,21.938,15.611,22.148z"/>
	<path fill="#A0C572" d="M17.315,26.381c-0.08-0.159-0.159-0.324-0.237-0.491C17.156,26.058,17.235,26.222,17.315,26.381z"/>
	<path fill="#A0C572" d="M17.778,27.242c-0.082-0.142-0.163-0.29-0.244-0.44C17.615,26.953,17.696,27.101,17.778,27.242z"/>
	<path fill="#A0C572" d="M14.501,18.423c-0.062-0.232-0.123-0.465-0.183-0.698C14.378,17.959,14.439,18.192,14.501,18.423z"/>
	<path fill="#A0C572" d="M14.164,17.132c-0.06-0.238-0.118-0.476-0.177-0.715C14.046,16.656,14.104,16.894,14.164,17.132z"/>
	<path fill="#A0C572" d="M16.866,25.432c-0.078-0.175-0.154-0.355-0.23-0.536C16.712,25.077,16.788,25.257,16.866,25.432z"/>
	<path fill="#A0C572" d="M13.258,13.244c-0.053-0.245-0.103-0.487-0.154-0.729C13.154,12.758,13.205,12.999,13.258,13.244z"/>
	<path fill="#A0C572" d="M56.58,21.558c-0.061,0.19-0.122,0.381-0.184,0.568C56.458,21.939,56.519,21.749,56.58,21.558z"/>
	<path fill="#A0C572" d="M12.106,7.314c-0.035-0.202-0.068-0.394-0.101-0.588C12.038,6.921,12.07,7.112,12.106,7.314z"/>
	<path fill="#A0C572" d="M56.188,22.733c-0.065,0.186-0.129,0.372-0.195,0.554C56.059,23.105,56.123,22.919,56.188,22.733z"/>
	<path fill="#A0C572" d="M12.991,11.978c-0.05-0.242-0.097-0.479-0.145-0.717C12.894,11.499,12.941,11.736,12.991,11.978z"/>
	<path fill="#A0C572" d="M57.32,19.073c-0.056,0.2-0.111,0.401-0.168,0.599C57.209,19.474,57.265,19.273,57.32,19.073z"/>
	<path fill="#A0C572" d="M11.777,5.369c-0.029-0.18-0.056-0.346-0.083-0.514C11.722,5.024,11.748,5.189,11.777,5.369z"/>
	<path fill="#A0C572" d="M55.354,24.921c-0.071,0.168-0.141,0.335-0.213,0.497C55.212,25.256,55.283,25.089,55.354,24.921z"/>
	<path fill="#A0C572" d="M11.931,6.299c-0.031-0.186-0.06-0.361-0.089-0.538C11.871,5.938,11.9,6.112,11.931,6.299z"/>
	<path fill="#A0C572" d="M56.958,20.335c-0.058,0.195-0.116,0.39-0.175,0.582C56.842,20.725,56.9,20.53,56.958,20.335z"/>
	<path fill="#A0C572" d="M55.779,23.859c-0.068,0.178-0.136,0.356-0.205,0.529C55.643,24.214,55.711,24.037,55.779,23.859z"/>
	<path fill="#A0C572" d="M12.742,10.739c-0.046-0.234-0.09-0.462-0.134-0.691C12.652,10.277,12.696,10.505,12.742,10.739z"/>
	<path fill="#A0C572" d="M12.299,8.399c-0.04-0.219-0.077-0.429-0.115-0.641C12.222,7.97,12.259,8.18,12.299,8.399z"/>
	<path fill="#A0C572" d="M53.502,28.339c-0.082,0.109-0.165,0.215-0.248,0.315C53.337,28.554,53.419,28.448,53.502,28.339z"/>
	<path fill="#A0C572" d="M52.489,29.406c-0.088,0.069-0.176,0.132-0.265,0.189C52.313,29.538,52.401,29.474,52.489,29.406z"/>
	<path fill="#A0C572" d="M53.003,28.934c-0.085,0.09-0.171,0.176-0.257,0.255C52.832,29.109,52.918,29.024,53.003,28.934z"/>
	<path fill="#A0C572" d="M54.457,26.818c-0.076,0.142-0.153,0.281-0.23,0.415C54.304,27.099,54.381,26.96,54.457,26.818z"/>
	<path fill="#A0C572" d="M54.912,25.912c-0.073,0.155-0.147,0.309-0.221,0.457C54.766,26.221,54.839,26.068,54.912,25.912z"/>
	<path fill="#A0C572" d="M12.511,9.544c-0.044-0.23-0.085-0.454-0.126-0.678C12.427,9.09,12.468,9.313,12.511,9.544z"/>
	<path fill="#A0C572" d="M53.986,27.63c-0.079,0.126-0.158,0.25-0.238,0.367C53.828,27.88,53.907,27.756,53.986,27.63z"/>
</g>
</svg>
