<?xml version="1.0" encoding="utf-8"?>
<!-- Generator: Adobe Illustrator 17.0.2, SVG Export Plug-In . SVG Version: 6.00 Build 0)  -->
<!DOCTYPE svg PUBLIC "-//W3C//DTD SVG 1.1//EN" "http://www.w3.org/Graphics/SVG/1.1/DTD/svg11.dtd">
<svg version="1.1" id="Layer_1" xmlns="http://www.w3.org/2000/svg" xmlns:xlink="http://www.w3.org/1999/xlink" x="0px" y="0px"
	 width="72px" height="55px" viewBox="0 0 72 55" enable-background="new 0 0 72 55" xml:space="preserve">
<g>
	<path opacity="0" d="M0,5L0,5v33.32c0,1.1,0.523,2.733,1.163,3.628l8.16,11.425C9.962,54.268,11.385,55,12.485,55h47.03
		c1.1,0,2.523-0.732,3.163-1.628l8.16-11.425C71.477,41.052,72,39.42,72,38.32v-2c0,1.1-0.523,2.732-1.162,3.627l-8.16,11.425
		C62.038,52.268,60.615,53,59.515,53h-47.03c-1.1,0-2.523-0.732-3.162-1.627l-8.16-11.425C0.523,39.053,0,37.42,0,36.32V5"/>
	<path fill="#5D753B" d="M70.822,1.178C70.936,1.429,71,1.707,71,2v32c0,1.1-0.523,2.732-1.162,3.627l-7.675,10.745
		C61.523,49.268,60.1,50,59,50H13c-1.1,0-2.523-0.732-3.162-1.627L2.162,37.627C1.523,36.732,1,35.1,1,34V2
		c0-0.293,0.064-0.571,0.178-0.822C0.485,1.493,0,2.193,0,3v2v31.32c0,1.1,0.523,2.733,1.163,3.628l8.16,11.425
		C9.962,52.268,11.385,53,12.485,53h47.03c1.1,0,2.523-0.732,3.163-1.628l8.16-11.425C71.477,39.052,72,37.42,72,36.32V3
		C72,2.193,71.515,1.493,70.822,1.178 M10.912,1.062c0.183,0.275,0.308,0.588,0.352,0.92c0,0,3.62,27.146,9.455,27.997
		c-0.241-0.238-0.44-0.506-0.573-0.787L12.385,3.829c-0.217-1.079-0.42-2.156-0.452-2.395C11.912,1.277,11.503,1.138,10.912,1.062
		 M61.089,1.062c-0.592,0.076-1.002,0.214-1.023,0.371c-0.032,0.239-0.235,1.316-0.451,2.395l-7.761,25.363
		c-0.133,0.282-0.332,0.55-0.574,0.789c5.836-0.852,9.456-27.998,9.456-27.998C60.78,1.65,60.905,1.337,61.089,1.062"/>
	<path fill="#A0C572" d="M69,0h-6c-1.1,0-2.119,0.892-2.264,1.982C60.736,1.982,57,30,51,30c-6,0-24,0-30,0
		c-6,0-9.736-28.018-9.736-28.018C11.119,0.892,10.1,0,9,0H3C1.9,0,1,0.9,1,2v32c0,1.1,0.523,2.732,1.162,3.627l7.676,10.746
		C10.477,49.268,11.9,50,13,50h46c1.1,0,2.523-0.732,3.163-1.628l7.675-10.745C70.477,36.732,71,35.1,71,34V2C71,0.9,70.1,0,69,0"/>
</g>
</svg>
